<?xml version="1.0" encoding="UTF-8" standalone="no"?>
<!DOCTYPE svg PUBLIC "-//W3C//DTD SVG 1.1//EN" "http://www.w3.org/Graphics/SVG/1.1/DTD/svg11.dtd">
<svg width="100%" height="100%" viewBox="0 0 20 20" version="1.1" xmlns="http://www.w3.org/2000/svg" xmlns:xlink="http://www.w3.org/1999/xlink" xml:space="preserve" xmlns:serif="http://www.serif.com/" style="fill-rule:evenodd;clip-rule:evenodd;stroke-linejoin:round;stroke-miterlimit:2;">
    <g transform="matrix(1.81818,0,0,1.81818,-889.091,-835.455)">
        <rect id="logo" x="489" y="459.5" width="11" height="11" style="fill:none;"/>
        <g id="logo1" serif:id="logo">
            <g transform="matrix(1.1,0,0,1.1,-50,-46.5)">
                <circle cx="495" cy="465" r="5"/>
            </g>
            <g transform="matrix(1.1,0,0,1.1,-50,-46.5)">
                <g transform="matrix(0.666667,0,0,0.666667,167.333,155.833)">
                    <circle cx="496.75" cy="463.75" r="2.25" style="fill:white;"/>
                </g>
                <g transform="matrix(0.666667,0,0,0.666667,160.336,155.833)">
                    <circle cx="496.75" cy="463.75" r="2.25" style="fill:white;"/>
                </g>
                <g transform="matrix(0.666667,0,0,0.666667,163.833,152.333)">
                    <circle cx="496.75" cy="463.75" r="2.25" style="fill:white;"/>
                </g>
                <g transform="matrix(0.666667,0,0,0.666667,163.833,159.333)">
                    <circle cx="496.75" cy="463.75" r="2.25" style="fill:white;"/>
                </g>
            </g>
        </g>
    </g>
</svg>
